Chef Academy S01E01 PDTV Xvid-Omicron avi [Dodecahedron]

Chef Academy chronicles award-winning chef Jean-Christophe Novelli's move to Los Angeles as he opens a cooking school and trains and transforms those who aspire to cook like professionals. Voted "World's Sexiest Chef" by The New York Times, Novelli is a Michelin and 5AA Rosette award-winning chef with restaurants in London, France and South Africa. His Novelli Academy Cookery School in the UK has placed in the "Top 25 Cookery Schools in the World". The docu-series will follow Novelli as he moves to the United States and sets up the school, and will chronicle as his students are tested and measured based on what they have learned.

--

Info:

Format : AVI
Format/Info : Audio Video Interleave
File size : 349 MiB
Duration : 44mn 25s
Overall bit rate : 1 098 Kbps
Writing application : VirtualDubMod 1.5.10.2 (build 2540/release)
Writing library : VirtualDubMod build 2540/release

Video

Format : MPEG-4 Visual
Format profile : Streaming Video@L1
Format settings, BVOP : Yes
Format settings, QPel : No
Format settings, GMC : No warppoints
Format settings, Matrix : Default
Muxing mode : Packed bitstream
Codec ID : XVID
Codec ID/Hint : XviD
Duration : 44mn 25s
Bit rate : 964 Kbps
Width : 512 pixels
Height : 384 pixels
Display aspect ratio : 4/3
Frame rate : 29.970 fps
Resolution : 24 bits
Colorimetry : 4:2:0
Scan type : Progressive
Bits/(Pixel*Frame) : 0.164
Stream size : 306 MiB (88%)
Writing library : XviD 50

Audio

Format : MPEG Audio
Format version : Version 1
Format profile : Layer 3
Codec ID : 55
Codec ID/Hint : MP3
Duration : 44mn 25s
Bit rate mode : Variable
Bit rate : 120 Kbps
Minimum bit rate : 32.0 Kbps
Channel(s) : 2 channels
Sampling rate : 48.0 KHz
Resolution : 16 bits
Stream size : 38.3 MiB (11%)
Alignment : Aligned on interleaves
Interleave, duration : 24 ms (0.72 video frame)
Interleave, preload duration : 551 ms
Writing library : LAME3.98 
Encoding settings : VBR (mtrh)

--
Brought to you by Dodecahedron. Enjoy and seed :)